<svg width="22" height="18" viewBox="0 0 22 18" fill="none" xmlns="http://www.w3.org/2000/svg">
<path d="M21.0833 0.74994C20.2055 1.36913 19.2336 1.84271 18.205 2.15244C17.6529 1.51766 16.9192 1.06774 16.1031 0.863539C15.287 0.659337 14.4278 0.710703 13.6419 1.01069C12.8559 1.31068 12.181 1.84481 11.7085 2.54085C11.236 3.23689 10.9887 4.06125 11 4.90244V5.81911C9.38904 5.86088 7.79279 5.5036 6.35338 4.7791C4.91397 4.0546 3.42609 2.32944 2.49997 1.01069C2.49997 1.01069 -0.916708 9.91661 7.33329 13.5833C5.44544 14.8647 3.19652 15.5073 0.916626 15.4166C9.16663 19.9999 19.25 15.4166 19.25 4.87494C19.2491 4.61961 19.2246 4.3649 19.1766 4.11411C20.1122 3.19148 20.7724 2.02659 21.0833 0.74994Z" stroke="white" stroke-width="1.5" stroke-linecap="round" stroke-linejoin="round"/>
</svg>
