<svg width="12" height="18" viewBox="0 0 12 18" fill="none" xmlns="http://www.w3.org/2000/svg">
<path d="M7.73336 7.66665H4.26669C3.60002 7.66665 3.06669 7.13332 3.06669 6.46665C3.06669 5.79998 3.60002 5.26665 4.26669 5.26665H9.20002C10 5.26665 10.5334 4.73332 10.5334 3.93332C10.5334 3.13332 10 2.59998 9.20002 2.59998H7.33336V1.39998C7.33336 0.599984 6.80002 0.0666504 6.00002 0.0666504C5.20002 0.0666504 4.66669 0.599984 4.66669 1.39998V2.59998H4.26669C2.13336 2.59998 0.400024 4.33332 0.400024 6.46665C0.400024 8.59998 2.13336 10.3333 4.26669 10.3333H7.60002C8.26669 10.3333 8.80002 10.8666 8.80002 11.5333C8.80002 12.2 8.26669 12.7333 7.60002 12.7333H2.66669C1.86669 12.7333 1.33336 13.2667 1.33336 14.0667C1.33336 14.8667 1.86669 15.4 2.66669 15.4H4.66669V16.6C4.66669 17.4 5.20002 17.9333 6.00002 17.9333C6.80002 17.9333 7.33336 17.4 7.33336 16.6V15.4H7.73336C9.86669 15.4 11.6 13.6667 11.6 11.5333C11.6 9.39998 9.86669 7.66665 7.73336 7.66665Z" fill="#FD9222"/>
</svg>
