<svg aria-hidden="true" style="position: absolute; width: 0; height: 0; overflow: hidden;" version="1.1" xmlns="http://www.w3.org/2000/svg" xmlns:xlink="http://www.w3.org/1999/xlink">
<defs>
<symbol id="icon-arrow" viewBox="0 0 32 32">
    <path d="M16.947 17.867c-0.124 0.125-0.271 0.224-0.434 0.292s-0.337 0.103-0.513 0.103-0.35-0.035-0.513-0.103c-0.163-0.068-0.31-0.167-0.434-0.292l-6.107-6.12c-0.124-0.125-0.271-0.224-0.434-0.292s-0.337-0.103-0.513-0.103c-0.176 0-0.35 0.035-0.513 0.103s-0.31 0.167-0.434 0.292c-0.248 0.25-0.388 0.588-0.388 0.94s0.139 0.69 0.388 0.94l6.12 6.12c0.75 0.749 1.767 1.17 2.827 1.17s2.077-0.421 2.827-1.17l6.12-6.12c0.246-0.248 0.385-0.584 0.387-0.933 0.001-0.175-0.033-0.349-0.099-0.512s-0.164-0.31-0.288-0.435c-0.124-0.125-0.271-0.224-0.434-0.292s-0.337-0.103-0.513-0.103c-0.176 0-0.35 0.035-0.513 0.103s-0.31 0.167-0.434 0.292l-6.107 6.12z"></path>
</symbol>
<symbol id="icon-chocolate" viewBox="0 0 32 32">
    <path d="M3.944 20.076l10.777-17.424 0.64-0.674 8.236 5.491 0.056 3.314 2.010 3.28-8.88 14.077-12.839-8.063z"></path>
    <path stroke-linejoin="round" stroke-linecap="round" stroke-miterlimit="4" stroke-width="2.6667" d="M21.635 23.88l-14.185-8.864M11.361 8.599l14.185 8.864M10.63 25.864l11.736-19.25M27.176 14.789c-3.040-1.899-4.234-3.384-2.278-6.592l-9.626-6.015-11.736 19.25 14.186 8.864 9.454-15.507z"></path>
</symbol>
<symbol id="icon-chocolate-bar" viewBox="0 0 32 32">
    <path d="M14.876 8.987l3.885 3.89 0.041-0.041c0.081-0.080 0.19-0.125 0.304-0.126s0.224 0.041 0.307 0.119l0.451 0.451c0.157 0.157 0.163 0.397 0.043 0.565l-0.002 0.004-0.074 0.099 3.179 3.179c0.284 0.284 0.284 0.738 0 1.022l-4.867 4.867c-0.284 0.284-0.738 0.284-1.022 0l-2.295-2.295c-0.038 0.048-0.086 0.087-0.14 0.116s-0.114 0.045-0.175 0.048c-0.061 0.003-0.122-0.006-0.18-0.028s-0.109-0.056-0.153-0.099l-1.342-1.342c-0.080-0.081-0.125-0.19-0.126-0.304s0.041-0.224 0.119-0.307l0.003-0.004 0.040-0.039-3.885-3.885c-0.284-0.284-0.284-0.738 0-1.022l4.867-4.867c0.284-0.284 0.738-0.284 1.022 0v0.001zM18.273 13.364l-0.906-0.906c-0.029-0.029-0.063-0.053-0.1-0.069s-0.078-0.024-0.119-0.024-0.081 0.008-0.119 0.024c-0.038 0.016-0.072 0.039-0.1 0.069l-1.848 1.848c-0.029 0.029-0.053 0.064-0.068 0.102s-0.024 0.079-0.024 0.12 0.008 0.082 0.024 0.12c0.016 0.038 0.039 0.073 0.068 0.102l0.903 0.903 0.315-0.315-0.808-0.808 1.657-1.662 0.81 0.812 0.316-0.316zM15.653 15.982l-0.905-0.905c-0.028-0.029-0.063-0.053-0.1-0.069s-0.078-0.024-0.119-0.024c-0.041 0-0.081 0.008-0.119 0.024s-0.072 0.039-0.1 0.069l-1.853 1.853c-0.124 0.119-0.124 0.315 0 0.439l0.904 0.904 0.318-0.318-0.81-0.807 1.662-1.657 0.807 0.807 0.316-0.315zM12.295 11.971l1.848 1.848c0.124 0.124 0.32 0.124 0.439-0.005l1.848-1.848c0.029-0.028 0.053-0.062 0.069-0.099s0.024-0.077 0.024-0.118h0.005c0-0.077-0.031-0.16-0.093-0.222l-1.848-1.848c-0.029-0.029-0.064-0.053-0.102-0.069s-0.079-0.024-0.12-0.024-0.082 0.008-0.12 0.024c-0.038 0.016-0.073 0.039-0.102 0.069l-1.848 1.853c-0.124 0.119-0.124 0.315 0 0.439zM9.678 14.587l1.848 1.848c0.124 0.124 0.32 0.124 0.439 0l1.848-1.848c0.030-0.029 0.054-0.063 0.070-0.101s0.024-0.079 0.023-0.121h0.005c0-0.083-0.031-0.16-0.093-0.222l-1.848-1.848c-0.028-0.029-0.063-0.053-0.1-0.069s-0.078-0.024-0.119-0.024-0.081 0.008-0.119 0.024c-0.038 0.016-0.072 0.039-0.1 0.069l-1.853 1.853c-0.124 0.119-0.124 0.315 0 0.439zM13.257 19.106l1.219 1.22 4.973-6.73-0.338-0.338-5.854 5.849z"></path>
    <path d="M14.876 8.987l3.885 3.89 0.041-0.041c0.081-0.080 0.19-0.125 0.304-0.126s0.224 0.041 0.307 0.119l0.451 0.451c0.157 0.157 0.163 0.397 0.043 0.565l-0.002 0.004-0.074 0.099 3.179 3.179c0.284 0.284 0.284 0.738 0 1.022l-4.867 4.867c-0.284 0.284-0.738 0.284-1.022 0l-2.295-2.295c-0.038 0.048-0.086 0.087-0.14 0.116s-0.114 0.045-0.175 0.048c-0.061 0.003-0.122-0.006-0.18-0.028s-0.109-0.056-0.153-0.099l-1.342-1.342c-0.080-0.081-0.125-0.19-0.126-0.304s0.041-0.224 0.119-0.307l0.003-0.004 0.040-0.039-3.885-3.885c-0.284-0.284-0.284-0.738 0-1.022l4.867-4.867c0.284-0.284 0.738-0.284 1.022 0v0.001zM18.273 13.364l-0.906-0.906c-0.029-0.029-0.063-0.053-0.1-0.069s-0.078-0.024-0.119-0.024-0.081 0.008-0.119 0.024c-0.038 0.016-0.072 0.039-0.1 0.069l-1.848 1.848c-0.029 0.029-0.053 0.064-0.068 0.102s-0.024 0.079-0.024 0.12 0.008 0.082 0.024 0.12c0.016 0.038 0.039 0.073 0.068 0.102l0.903 0.903 0.315-0.315-0.808-0.808 1.657-1.662 0.81 0.812 0.316-0.316zM15.653 15.982l-0.905-0.905c-0.028-0.029-0.063-0.053-0.1-0.069s-0.078-0.024-0.119-0.024c-0.041 0-0.081 0.008-0.119 0.024s-0.072 0.039-0.1 0.069l-1.853 1.853c-0.124 0.119-0.124 0.315 0 0.439l0.904 0.904 0.318-0.318-0.81-0.807 1.662-1.657 0.807 0.807 0.316-0.315zM12.295 11.971l1.848 1.848c0.124 0.124 0.32 0.124 0.439-0.005l1.848-1.848c0.029-0.028 0.053-0.062 0.069-0.099s0.024-0.077 0.024-0.118h0.005c0-0.077-0.031-0.16-0.093-0.222l-1.848-1.848c-0.029-0.029-0.064-0.053-0.102-0.069s-0.079-0.024-0.12-0.024-0.082 0.008-0.12 0.024c-0.038 0.016-0.073 0.039-0.102 0.069l-1.848 1.853c-0.124 0.119-0.124 0.315 0 0.439zM9.678 14.587l1.848 1.848c0.124 0.124 0.32 0.124 0.439 0l1.848-1.848c0.030-0.029 0.054-0.063 0.070-0.101s0.024-0.079 0.023-0.121h0.005c0-0.083-0.031-0.16-0.093-0.222l-1.848-1.848c-0.028-0.029-0.063-0.053-0.1-0.069s-0.078-0.024-0.119-0.024-0.081 0.008-0.119 0.024c-0.038 0.016-0.072 0.039-0.1 0.069l-1.853 1.853c-0.124 0.119-0.124 0.315 0 0.439zM13.257 19.106l1.219 1.22 4.973-6.73-0.338-0.338-5.854 5.849z"></path>
    <path stroke-linejoin="miter" stroke-linecap="butt" stroke-miterlimit="4" stroke-width="0.5161" d="M16 0.258c8.694 0 15.742 7.048 15.742 15.742s-7.048 15.742-15.742 15.742c-8.694 0-15.742-7.048-15.742-15.742s7.048-15.742 15.742-15.742z"></path>
</symbol>
<symbol id="icon-coin" viewBox="0 0 32 32">
    <path d="M16 9.118c-3.785 0-6.882 3.097-6.882 6.882s3.097 6.882 6.882 6.882c3.785 0 6.882-3.097 6.882-6.882s-3.097-6.882-6.882-6.882zM16 21.505c-3.028 0-5.505-2.477-5.505-5.505s2.477-5.505 5.505-5.505c3.028 0 5.505 2.477 5.505 5.505s-2.477 5.505-5.505 5.505z"></path>
    <path d="M16.895 15.312h-1.789c-0.344 0-0.619-0.275-0.619-0.619s0.275-0.619 0.619-0.619h2.546c0.413 0 0.688-0.275 0.688-0.688s-0.275-0.688-0.688-0.688h-0.963v-0.619c0-0.413-0.275-0.688-0.688-0.688s-0.688 0.275-0.688 0.688v0.619h-0.206c-1.101 0-1.996 0.895-1.996 1.996s0.895 1.996 1.996 1.996h1.72c0.344 0 0.619 0.275 0.619 0.619s-0.275 0.619-0.619 0.619h-2.546c-0.413 0-0.688 0.275-0.688 0.688s0.275 0.688 0.688 0.688h1.032v0.619c0 0.413 0.275 0.688 0.688 0.688s0.688-0.275 0.688-0.688v-0.619h0.206c1.101 0 1.996-0.895 1.996-1.996s-0.895-1.996-1.996-1.996z"></path>
    <path stroke-linejoin="miter" stroke-linecap="butt" stroke-miterlimit="4" stroke-width="0.5161" d="M16 0.258c8.694 0 15.742 7.048 15.742 15.742s-7.048 15.742-15.742 15.742c-8.694 0-15.742-7.048-15.742-15.742s7.048-15.742 15.742-15.742z"></path>
</symbol>
<symbol id="icon-instagram" viewBox="0 0 32 32">
    <path stroke-linejoin="round" stroke-linecap="round" stroke-miterlimit="4" stroke-width="2.6667" d="M22.667 2.667h-13.333c-3.682 0-6.667 2.985-6.667 6.667v13.333c0 3.682 2.985 6.667 6.667 6.667h13.333c3.682 0 6.667-2.985 6.667-6.667v-13.333c0-3.682-2.985-6.667-6.667-6.667z"></path>
    <path stroke-linejoin="round" stroke-linecap="round" stroke-miterlimit="4" stroke-width="2.6667" d="M21.333 15.16c0.165 1.11-0.025 2.243-0.542 3.239s-1.334 1.803-2.336 2.307c-1.002 0.504-2.138 0.68-3.245 0.502s-2.131-0.701-2.924-1.494-1.316-1.816-1.494-2.924c-0.178-1.108-0.003-2.243 0.502-3.245s1.312-1.819 2.307-2.336c0.996-0.517 2.129-0.706 3.239-0.542 1.132 0.168 2.18 0.695 2.989 1.504s1.337 1.857 1.505 2.989z"></path>
    <path stroke-linejoin="round" stroke-linecap="round" stroke-miterlimit="4" stroke-width="2.6667" d="M23.333 8.667h0.013"></path>
</symbol>
<symbol id="icon-play" viewBox="0 0 32 32">
    <path d="M10.909 24v-15.273l14.545 7.636-14.545 7.636z"></path>
    <path stroke-linejoin="miter" stroke-linecap="butt" stroke-miterlimit="4" stroke-width="0.7273" d="M31.636 16c0 8.636-7.001 15.636-15.636 15.636s-15.636-7.001-15.636-15.636c0-8.636 7.001-15.636 15.636-15.636s15.636 7.001 15.636 15.636z"></path>
</symbol>
<symbol id="icon-spoon" viewBox="0 0 32 32">
    <path d="M15.717 15.022c-0.404-0.49-0.607-1.092-0.607-1.694 0-2.232 2.674-4.46 5.348-4.46 1.476 0 2.674 1.198 2.674 2.675 0 2.675-2.228 5.349-4.462 5.349-0.602 0-1.203-0.203-1.694-0.607l-6.585 6.586c-0.348 0.348-0.914 0.348-1.262 0s-0.348-0.914 0-1.262l6.588-6.586z"></path>
    <path stroke-linejoin="miter" stroke-linecap="butt" stroke-miterlimit="4" stroke-width="0.5161" d="M16 0.258c8.694 0 15.742 7.048 15.742 15.742s-7.048 15.742-15.742 15.742c-8.694 0-15.742-7.048-15.742-15.742s7.048-15.742 15.742-15.742z"></path>
</symbol>
<symbol id="icon-twitter" viewBox="0 0 32 32">
    <path stroke-linejoin="round" stroke-linecap="round" stroke-miterlimit="4" stroke-width="2.6667" d="M30.667 4c-1.277 0.901-2.691 1.589-4.187 2.040-0.803-0.923-1.87-1.578-3.057-1.875s-2.437-0.222-3.58 0.214c-1.143 0.436-2.125 1.213-2.812 2.226s-1.047 2.212-1.031 3.435v1.333c-2.343 0.061-4.665-0.459-6.759-1.513s-4.561-3.563-5.908-5.481c0 0-4.667 12.954 7.333 18.287-2.746 1.864-6.017 2.799-9.333 2.667 12 6.667 26.667 0 26.667-15.333-0.001-0.371-0.037-0.742-0.107-1.107 1.361-1.342 2.321-3.036 2.773-4.893z"></path>
</symbol>
</defs>
</svg>
