<svg aria-hidden="true" style="position: absolute; width: 0; height: 0; overflow: hidden;" version="1.1" xmlns="http://www.w3.org/2000/svg" xmlns:xlink="http://www.w3.org/1999/xlink">
<defs>
<symbol id="icon-arrow" viewBox="0 0 32 32">
    <path d="M16.947 17.867c-0.124 0.125-0.271 0.224-0.434 0.292s-0.337 0.103-0.513 0.103-0.35-0.035-0.513-0.103c-0.163-0.068-0.31-0.167-0.434-0.292l-6.107-6.12c-0.124-0.125-0.271-0.224-0.434-0.292s-0.337-0.103-0.513-0.103c-0.176 0-0.35 0.035-0.513 0.103s-0.31 0.167-0.434 0.292c-0.248 0.25-0.388 0.588-0.388 0.94s0.139 0.69 0.388 0.94l6.12 6.12c0.75 0.749 1.767 1.17 2.827 1.17s2.077-0.421 2.827-1.17l6.12-6.12c0.246-0.248 0.385-0.584 0.387-0.933 0.001-0.175-0.033-0.349-0.099-0.512s-0.164-0.31-0.288-0.435c-0.124-0.125-0.271-0.224-0.434-0.292s-0.337-0.103-0.513-0.103c-0.176 0-0.35 0.035-0.513 0.103s-0.31 0.167-0.434 0.292l-6.107 6.12z"></path>
</symbol>
<symbol id="icon-chocolate-bar" viewBox="0 0 32 32">
<path d="M13.511 0.472l8.602 8.613 0.091-0.091c0.18-0.176 0.422-0.276 0.674-0.279s0.496 0.092 0.68 0.264l0.998 0.998c0.349 0.349 0.36 0.88 0.095 1.25l-0.005 0.008-0.163 0.219 7.040 7.040c0.629 0.629 0.629 1.634 0 2.263l-10.777 10.777c-0.629 0.629-1.634 0.629-2.263 0l-5.082-5.082c-0.084 0.106-0.19 0.194-0.311 0.256s-0.253 0.099-0.389 0.106c-0.136 0.008-0.271-0.014-0.398-0.062s-0.242-0.123-0.338-0.22l-2.971-2.971c-0.176-0.18-0.276-0.421-0.279-0.674s0.092-0.496 0.264-0.68l0.007-0.008 0.088-0.087-8.602-8.602c-0.629-0.629-0.629-1.634 0-2.263l10.777-10.777c0.629-0.629 1.634-0.629 2.263 0v0.001zM21.033 10.163l-2.007-2.006c-0.063-0.065-0.139-0.117-0.222-0.152s-0.173-0.053-0.264-0.053c-0.091 0-0.18 0.018-0.264 0.053s-0.159 0.087-0.222 0.152l-4.091 4.091c-0.065 0.064-0.116 0.141-0.151 0.225s-0.053 0.175-0.053 0.266 0.018 0.182 0.053 0.266c0.035 0.084 0.086 0.161 0.151 0.225l1.999 1.999 0.697-0.697-1.789-1.789 3.669-3.68 1.793 1.799 0.701-0.701zM15.232 15.96l-2.005-2.005c-0.063-0.065-0.139-0.117-0.222-0.152s-0.173-0.053-0.264-0.053c-0.091 0-0.18 0.018-0.264 0.053s-0.159 0.087-0.222 0.152l-4.103 4.103c-0.274 0.263-0.274 0.697 0 0.971l2.002 2.002 0.704-0.704-1.794-1.787 3.68-3.669 1.787 1.786 0.699-0.698zM7.797 7.078l4.091 4.091c0.274 0.274 0.709 0.274 0.971-0.011l4.091-4.091c0.065-0.062 0.117-0.136 0.152-0.219s0.054-0.171 0.054-0.261h0.011c0-0.171-0.069-0.354-0.206-0.491l-4.091-4.091c-0.064-0.065-0.141-0.117-0.225-0.152s-0.175-0.053-0.266-0.053c-0.091 0-0.182 0.018-0.266 0.053s-0.161 0.087-0.225 0.152l-4.091 4.103c-0.274 0.263-0.274 0.697 0 0.971zM2.002 12.872l4.091 4.091c0.274 0.274 0.709 0.274 0.971 0l4.091-4.091c0.066-0.063 0.119-0.14 0.154-0.224s0.053-0.176 0.051-0.267h0.011c0-0.183-0.069-0.354-0.206-0.491l-4.091-4.091c-0.063-0.065-0.139-0.117-0.222-0.152s-0.173-0.053-0.264-0.053c-0.091 0-0.18 0.018-0.264 0.053s-0.159 0.087-0.222 0.152l-4.103 4.103c-0.274 0.263-0.274 0.697 0 0.971zM9.926 22.877l2.699 2.701 11.013-14.903-0.749-0.749-12.963 12.951z"></path>
<path d="M13.511 0.472l8.602 8.613 0.091-0.091c0.18-0.176 0.422-0.276 0.674-0.279s0.496 0.092 0.68 0.264l0.998 0.998c0.349 0.349 0.36 0.88 0.095 1.25l-0.005 0.008-0.163 0.219 7.040 7.040c0.629 0.629 0.629 1.634 0 2.263l-10.777 10.777c-0.629 0.629-1.634 0.629-2.263 0l-5.082-5.082c-0.084 0.106-0.19 0.194-0.311 0.256s-0.253 0.099-0.389 0.106c-0.136 0.008-0.271-0.014-0.398-0.062s-0.242-0.123-0.338-0.22l-2.971-2.971c-0.176-0.18-0.276-0.421-0.279-0.674s0.092-0.496 0.264-0.68l0.007-0.008 0.088-0.087-8.602-8.602c-0.629-0.629-0.629-1.634 0-2.263l10.777-10.777c0.629-0.629 1.634-0.629 2.263 0v0.001zM21.033 10.163l-2.007-2.006c-0.063-0.065-0.139-0.117-0.222-0.152s-0.173-0.053-0.264-0.053c-0.091 0-0.18 0.018-0.264 0.053s-0.159 0.087-0.222 0.152l-4.091 4.091c-0.065 0.064-0.116 0.141-0.151 0.225s-0.053 0.175-0.053 0.266 0.018 0.182 0.053 0.266c0.035 0.084 0.086 0.161 0.151 0.225l1.999 1.999 0.697-0.697-1.789-1.789 3.669-3.68 1.793 1.799 0.701-0.701zM15.232 15.96l-2.005-2.005c-0.063-0.065-0.139-0.117-0.222-0.152s-0.173-0.053-0.264-0.053c-0.091 0-0.18 0.018-0.264 0.053s-0.159 0.087-0.222 0.152l-4.103 4.103c-0.274 0.263-0.274 0.697 0 0.971l2.002 2.002 0.704-0.704-1.794-1.787 3.68-3.669 1.787 1.786 0.699-0.698zM7.797 7.078l4.091 4.091c0.274 0.274 0.709 0.274 0.971-0.011l4.091-4.091c0.065-0.062 0.117-0.136 0.152-0.219s0.054-0.171 0.054-0.261h0.011c0-0.171-0.069-0.354-0.206-0.491l-4.091-4.091c-0.064-0.065-0.141-0.117-0.225-0.152s-0.175-0.053-0.266-0.053c-0.091 0-0.182 0.018-0.266 0.053s-0.161 0.087-0.225 0.152l-4.091 4.103c-0.274 0.263-0.274 0.697 0 0.971zM2.002 12.872l4.091 4.091c0.274 0.274 0.709 0.274 0.971 0l4.091-4.091c0.066-0.063 0.119-0.14 0.154-0.224s0.053-0.176 0.051-0.267h0.011c0-0.183-0.069-0.354-0.206-0.491l-4.091-4.091c-0.063-0.065-0.139-0.117-0.222-0.152s-0.173-0.053-0.264-0.053c-0.091 0-0.18 0.018-0.264 0.053s-0.159 0.087-0.222 0.152l-4.103 4.103c-0.274 0.263-0.274 0.697 0 0.971zM9.926 22.877l2.699 2.701 11.013-14.903-0.749-0.749-12.963 12.951z"></path>
</symbol>
<symbol id="icon-chocolate-bar" viewBox="0 0 32 32">
    <path d="M14.876 8.987l3.885 3.89 0.041-0.041c0.081-0.080 0.19-0.125 0.304-0.126s0.224 0.041 0.307 0.119l0.451 0.451c0.157 0.157 0.163 0.397 0.043 0.565l-0.002 0.004-0.074 0.099 3.179 3.179c0.284 0.284 0.284 0.738 0 1.022l-4.867 4.867c-0.284 0.284-0.738 0.284-1.022 0l-2.295-2.295c-0.038 0.048-0.086 0.087-0.14 0.116s-0.114 0.045-0.175 0.048c-0.061 0.003-0.122-0.006-0.18-0.028s-0.109-0.056-0.153-0.099l-1.342-1.342c-0.080-0.081-0.125-0.19-0.126-0.304s0.041-0.224 0.119-0.307l0.003-0.004 0.040-0.039-3.885-3.885c-0.284-0.284-0.284-0.738 0-1.022l4.867-4.867c0.284-0.284 0.738-0.284 1.022 0v0.001zM18.273 13.364l-0.906-0.906c-0.029-0.029-0.063-0.053-0.1-0.069s-0.078-0.024-0.119-0.024-0.081 0.008-0.119 0.024c-0.038 0.016-0.072 0.039-0.1 0.069l-1.848 1.848c-0.029 0.029-0.053 0.064-0.068 0.102s-0.024 0.079-0.024 0.12 0.008 0.082 0.024 0.12c0.016 0.038 0.039 0.073 0.068 0.102l0.903 0.903 0.315-0.315-0.808-0.808 1.657-1.662 0.81 0.812 0.316-0.316zM15.653 15.982l-0.905-0.905c-0.028-0.029-0.063-0.053-0.1-0.069s-0.078-0.024-0.119-0.024c-0.041 0-0.081 0.008-0.119 0.024s-0.072 0.039-0.1 0.069l-1.853 1.853c-0.124 0.119-0.124 0.315 0 0.439l0.904 0.904 0.318-0.318-0.81-0.807 1.662-1.657 0.807 0.807 0.316-0.315zM12.295 11.971l1.848 1.848c0.124 0.124 0.32 0.124 0.439-0.005l1.848-1.848c0.029-0.028 0.053-0.062 0.069-0.099s0.024-0.077 0.024-0.118h0.005c0-0.077-0.031-0.16-0.093-0.222l-1.848-1.848c-0.029-0.029-0.064-0.053-0.102-0.069s-0.079-0.024-0.12-0.024-0.082 0.008-0.12 0.024c-0.038 0.016-0.073 0.039-0.102 0.069l-1.848 1.853c-0.124 0.119-0.124 0.315 0 0.439zM9.678 14.587l1.848 1.848c0.124 0.124 0.32 0.124 0.439 0l1.848-1.848c0.030-0.029 0.054-0.063 0.070-0.101s0.024-0.079 0.023-0.121h0.005c0-0.083-0.031-0.16-0.093-0.222l-1.848-1.848c-0.028-0.029-0.063-0.053-0.1-0.069s-0.078-0.024-0.119-0.024-0.081 0.008-0.119 0.024c-0.038 0.016-0.072 0.039-0.1 0.069l-1.853 1.853c-0.124 0.119-0.124 0.315 0 0.439zM13.257 19.106l1.219 1.22 4.973-6.73-0.338-0.338-5.854 5.849z"></path>
    <path d="M14.876 8.987l3.885 3.89 0.041-0.041c0.081-0.080 0.19-0.125 0.304-0.126s0.224 0.041 0.307 0.119l0.451 0.451c0.157 0.157 0.163 0.397 0.043 0.565l-0.002 0.004-0.074 0.099 3.179 3.179c0.284 0.284 0.284 0.738 0 1.022l-4.867 4.867c-0.284 0.284-0.738 0.284-1.022 0l-2.295-2.295c-0.038 0.048-0.086 0.087-0.14 0.116s-0.114 0.045-0.175 0.048c-0.061 0.003-0.122-0.006-0.18-0.028s-0.109-0.056-0.153-0.099l-1.342-1.342c-0.080-0.081-0.125-0.19-0.126-0.304s0.041-0.224 0.119-0.307l0.003-0.004 0.040-0.039-3.885-3.885c-0.284-0.284-0.284-0.738 0-1.022l4.867-4.867c0.284-0.284 0.738-0.284 1.022 0v0.001zM18.273 13.364l-0.906-0.906c-0.029-0.029-0.063-0.053-0.1-0.069s-0.078-0.024-0.119-0.024-0.081 0.008-0.119 0.024c-0.038 0.016-0.072 0.039-0.1 0.069l-1.848 1.848c-0.029 0.029-0.053 0.064-0.068 0.102s-0.024 0.079-0.024 0.12 0.008 0.082 0.024 0.12c0.016 0.038 0.039 0.073 0.068 0.102l0.903 0.903 0.315-0.315-0.808-0.808 1.657-1.662 0.81 0.812 0.316-0.316zM15.653 15.982l-0.905-0.905c-0.028-0.029-0.063-0.053-0.1-0.069s-0.078-0.024-0.119-0.024c-0.041 0-0.081 0.008-0.119 0.024s-0.072 0.039-0.1 0.069l-1.853 1.853c-0.124 0.119-0.124 0.315 0 0.439l0.904 0.904 0.318-0.318-0.81-0.807 1.662-1.657 0.807 0.807 0.316-0.315zM12.295 11.971l1.848 1.848c0.124 0.124 0.32 0.124 0.439-0.005l1.848-1.848c0.029-0.028 0.053-0.062 0.069-0.099s0.024-0.077 0.024-0.118h0.005c0-0.077-0.031-0.16-0.093-0.222l-1.848-1.848c-0.029-0.029-0.064-0.053-0.102-0.069s-0.079-0.024-0.12-0.024-0.082 0.008-0.12 0.024c-0.038 0.016-0.073 0.039-0.102 0.069l-1.848 1.853c-0.124 0.119-0.124 0.315 0 0.439zM9.678 14.587l1.848 1.848c0.124 0.124 0.32 0.124 0.439 0l1.848-1.848c0.030-0.029 0.054-0.063 0.070-0.101s0.024-0.079 0.023-0.121h0.005c0-0.083-0.031-0.16-0.093-0.222l-1.848-1.848c-0.028-0.029-0.063-0.053-0.1-0.069s-0.078-0.024-0.119-0.024-0.081 0.008-0.119 0.024c-0.038 0.016-0.072 0.039-0.1 0.069l-1.853 1.853c-0.124 0.119-0.124 0.315 0 0.439zM13.257 19.106l1.219 1.22 4.973-6.73-0.338-0.338-5.854 5.849z"></path>
    <path stroke-linejoin="miter" stroke-linecap="butt" stroke-miterlimit="4" stroke-width="0.5161" d="M16 0.258c8.694 0 15.742 7.048 15.742 15.742s-7.048 15.742-15.742 15.742c-8.694 0-15.742-7.048-15.742-15.742s7.048-15.742 15.742-15.742z"></path>
</symbol>
<symbol id="icon-coin" viewBox="0 0 32 32">
<path d="M19.082 13.63h-6.163c-1.185 0-2.133-0.948-2.133-2.133s0.948-2.133 2.133-2.133h8.77c1.422 0 2.37-0.948 2.37-2.37s-0.948-2.37-2.37-2.37h-3.319v-2.133c0-1.422-0.948-2.37-2.37-2.37s-2.37 0.948-2.37 2.37v2.133h-0.711c-3.793 0-6.874 3.082-6.874 6.874s3.082 6.874 6.874 6.874h5.926c1.185 0 2.133 0.948 2.133 2.133s-0.948 2.133-2.133 2.133h-8.77c-1.422 0-2.37 0.948-2.37 2.37s0.948 2.37 2.37 2.37h3.556v2.133c0 1.422 0.948 2.37 2.37 2.37s2.37-0.948 2.37-2.37v-2.133h0.711c3.793 0 6.874-3.081 6.874-6.874s-3.081-6.874-6.874-6.874z"></path>
</symbol>
<symbol id="icon-instagram" viewBox="0 0 32 32">
<path stroke-linejoin="round" stroke-linecap="round" stroke-miterlimit="4" stroke-width="2.1818" d="M22.667 2.667h-13.333c-3.682 0-6.667 2.985-6.667 6.667v13.333c0 3.682 2.985 6.667 6.667 6.667h13.333c3.682 0 6.667-2.985 6.667-6.667v-13.333c0-3.682-2.985-6.667-6.667-6.667z"></path>
<path stroke-linejoin="round" stroke-linecap="round" stroke-miterlimit="4" stroke-width="2.1818" d="M21.333 15.16c0.165 1.11-0.025 2.243-0.542 3.239s-1.334 1.803-2.336 2.308c-1.002 0.504-2.138 0.68-3.245 0.502s-2.131-0.701-2.924-1.494-1.316-1.816-1.494-2.924c-0.178-1.107-0.003-2.243 0.502-3.245s1.312-1.82 2.308-2.336c0.996-0.517 2.129-0.706 3.239-0.542 1.132 0.168 2.18 0.695 2.989 1.504s1.337 1.857 1.504 2.989z"></path>
<path stroke-linejoin="round" stroke-linecap="round" stroke-miterlimit="4" stroke-width="2.1818" d="M23.333 8.667h0.015"></path>
</symbol>
<symbol id="icon-play" viewBox="0 0 32 32">
    <path d="M10.909 24v-15.273l14.545 7.636-14.545 7.636z"></path>
    <path stroke-linejoin="miter" stroke-linecap="butt" stroke-miterlimit="4" stroke-width="0.7273" d="M31.636 16c0 8.636-7.001 15.636-15.636 15.636s-15.636-7.001-15.636-15.636c0-8.636 7.001-15.636 15.636-15.636s15.636 7.001 15.636 15.636z"></path>
</symbol>
<symbol id="icon-spoon" viewBox="0 0 32 32">
<path d="M15.373 13.835c-0.894-1.086-1.345-2.418-1.345-3.751 0-4.941 5.921-9.877 11.842-9.877 3.269 0 5.921 2.653 5.921 5.922 0 5.922-4.934 11.845-9.881 11.845-1.332 0-2.665-0.45-3.75-1.345l-14.581 14.584c-0.771 0.771-2.023 0.771-2.794 0s-0.771-2.024 0-2.795l14.587-14.584z"></path>
</symbol>
<symbol id="icon-Vector-twitter" viewBox="0 0 32 32">
<path stroke-linejoin="round" stroke-linecap="round" stroke-miterlimit="4" stroke-width="2.1818" d="M30.667 4c-1.277 0.901-2.69 1.589-4.187 2.040-0.803-0.923-1.87-1.578-3.057-1.875s-2.437-0.222-3.58 0.214c-1.143 0.436-2.125 1.213-2.812 2.226s-1.047 2.212-1.031 3.435v1.333c-2.343 0.061-4.665-0.459-6.759-1.513s-4.258-3.563-5.605-5.481c0 0-4.97 12.954 7.030 18.287-2.746 1.864-6.017 2.799-9.333 2.667 12 6.667 26.667 0 26.667-15.333-0.001-0.371-0.037-0.742-0.107-1.107 1.361-1.342 2.321-3.036 2.773-4.893z"></path>
</symbol>
</defs>
</svg>
