<!-- Generated by IcoMoon.io -->
<svg version="1.1" xmlns="http://www.w3.org/2000/svg" width="32" height="32" viewBox="0 0 32 32">
<path d="M19.082 13.63h-6.163c-1.185 0-2.133-0.948-2.133-2.133s0.948-2.133 2.133-2.133h8.77c1.422 0 2.37-0.948 2.37-2.37s-0.948-2.37-2.37-2.37h-3.319v-2.133c0-1.422-0.948-2.37-2.37-2.37s-2.37 0.948-2.37 2.37v2.133h-0.711c-3.793 0-6.874 3.082-6.874 6.874s3.082 6.874 6.874 6.874h5.926c1.185 0 2.133 0.948 2.133 2.133s-0.948 2.133-2.133 2.133h-8.77c-1.422 0-2.37 0.948-2.37 2.37s0.948 2.37 2.37 2.37h3.556v2.133c0 1.422 0.948 2.37 2.37 2.37s2.37-0.948 2.37-2.37v-2.133h0.711c3.793 0 6.874-3.081 6.874-6.874s-3.081-6.874-6.874-6.874z"></path>
</svg>
